<svg id="圖層_1" data-name="圖層 1" xmlns="http://www.w3.org/2000/svg" viewBox="0 0 24.11 15.5"><defs><style>.cls-1{fill:#4d3f2f;}</style></defs><path class="cls-1" d="M19,5.5a5.07,5.07,0,0,0-1.59.28L14.46,0H11V1.5h2.54l.88,1.72L12,8.63,10.23,4.5a.77.77,0,0,0,.51-.7A.75.75,0,0,0,10,3H8A.75.75,0,0,0,8,4.5h.61l2.25,5.25H9.92a5,5,0,1,0,0,1.5H12.5l2.79-6.32.79,1.57A5,5,0,1,0,19,5.5ZM5,14A3.5,3.5,0,1,1,8.41,9.75H4v1.5H8.41A3.5,3.5,0,0,1,5,14Zm14,0a3.5,3.5,0,0,1-3.5-3.5,3.46,3.46,0,0,1,1.27-2.67l1.8,3.52,1.32-.72L18.1,7.13A3.91,3.91,0,0,1,19,7a3.5,3.5,0,0,1,0,7Z" transform="translate(0.02 0)"/></svg>