<svg id="圖層_1" data-name="圖層 1" xmlns="http://www.w3.org/2000/svg" viewBox="0 0 20 16"><defs><style>.cls-1{fill:#6f5b44;}</style></defs><path class="cls-1" d="M22,7v9a2,2,0,0,1-1,1.72v1.53a.76.76,0,0,1-.75.75h-.5a.76.76,0,0,1-.75-.75V18H12v1.25a.76.76,0,0,1-.75.75h-.5a.76.76,0,0,1-.75-.75V17.72A2,2,0,0,1,9,16V7c0-3,3-3,6.5-3S22,4,22,7Zm-9,8a1,1,0,1,0-1,1A1,1,0,0,0,13,15Zm7,0a1,1,0,1,0-1,1A1,1,0,0,0,20,15Zm0-8H11v4h9ZM7,9.5A2.5,2.5,0,1,0,4,12v8H5V12A2.52,2.52,0,0,0,7,9.5Z" transform="translate(-2 -4)"/></svg>