<svg width="480" height="231" viewBox="0 0 480 231" fill="none" xmlns="http://www.w3.org/2000/svg">
<path d="M0 20C0 8.9543 8.95431 0 20 0H440C462.091 0 480 17.9086 480 40V175C480 186.046 471.046 195 460 195H20C8.95432 195 0 186.046 0 175V20Z" fill="#6F5B44"/>
<path d="M468 121C468 118.239 470.239 116 473 116H480V135H473C470.239 135 468 132.761 468 130V121Z" fill="#E5E5E5"/>
<path d="M156 195C156 214.882 139.882 231 120 231C100.118 231 84 214.882 84 195C84 175.118 100.118 159 120 159C139.882 159 156 175.118 156 195Z" fill="#332A20"/>
<circle cx="120" cy="195" r="15" fill="white"/>
<path d="M396 195C396 214.882 379.882 231 360 231C340.118 231 324 214.882 324 195C324 175.118 340.118 159 360 159C379.882 159 396 175.118 396 195Z" fill="#332A1F"/>
<circle cx="360" cy="195" r="15" fill="white"/>
<rect x="16" y="18" width="60" height="80" rx="10" fill="#E6E6E6"/>
<path fill-rule="evenodd" clip-rule="evenodd" d="M64.6037 98H65.8435C67.3139 98 68.7102 97.6826 69.9676 97.1127L20.5134 19.5374C19.0364 20.4696 17.8205 21.7778 17 23.3275L64.6037 98ZM24.9995 18.0351L73.6147 94.2941C74.3278 93.4148 74.8946 92.412 75.2782 91.3228L28.5349 18H25.8435C25.5593 18 25.2778 18.0119 24.9995 18.0351Z" fill="white"/>
<rect x="90" y="18" width="60" height="80" rx="10" fill="#E6E6E6"/>
<path fill-rule="evenodd" clip-rule="evenodd" d="M138.604 98H139.844C141.314 98 142.71 97.6826 143.968 97.1127L94.5134 19.5374C93.0364 20.4696 91.8205 21.7778 91 23.3275L138.604 98ZM98.9995 18.0351L147.615 94.2941C148.328 93.4148 148.895 92.412 149.278 91.3228L102.535 18H99.8435C99.5593 18 99.2778 18.0119 98.9995 18.0351Z" fill="white"/>
<rect x="163" y="18" width="60" height="80" rx="10" fill="#E6E6E6"/>
<path fill-rule="evenodd" clip-rule="evenodd" d="M211.604 98H212.844C214.314 98 215.71 97.6826 216.968 97.1127L167.513 19.5374C166.036 20.4696 164.821 21.7778 164 23.3275L211.604 98ZM172 18.0351L220.615 94.2941C221.328 93.4148 221.895 92.412 222.278 91.3228L175.535 18H172.844C172.559 18 172.278 18.0119 172 18.0351Z" fill="white"/>
<rect x="237" y="18" width="60" height="80" rx="10" fill="#E6E6E6"/>
<path fill-rule="evenodd" clip-rule="evenodd" d="M285.604 98H286.844C288.314 98 289.71 97.6826 290.968 97.1127L241.513 19.5374C240.036 20.4696 238.821 21.7778 238 23.3275L285.604 98ZM246 18.0351L294.615 94.2941C295.328 93.4148 295.895 92.412 296.278 91.3228L249.535 18H246.844C246.559 18 246.278 18.0119 246 18.0351Z" fill="white"/>
<rect x="311" y="18" width="60" height="80" rx="10" fill="#E6E6E6"/>
<path fill-rule="evenodd" clip-rule="evenodd" d="M359.604 98H360.844C362.314 98 363.71 97.6826 364.968 97.1127L315.513 19.5374C314.036 20.4696 312.821 21.7778 312 23.3275L359.604 98ZM320 18.0351L368.615 94.2941C369.328 93.4148 369.895 92.412 370.278 91.3228L323.535 18H320.844C320.559 18 320.278 18.0119 320 18.0351Z" fill="white"/>
<path d="M384 28C384 22.4772 388.477 18 394 18H434C450.569 18 464 31.4315 464 48V88C464 93.5229 459.523 98 454 98H394C388.477 98 384 93.5229 384 88V28Z" fill="#E5E5E5"/>
<path fill-rule="evenodd" clip-rule="evenodd" d="M435.352 98H441.262L391.232 18.6334C389.631 19.2337 388.225 20.2327 387.134 21.5095L435.352 98ZM397.512 18L447.942 98H451.141C451.184 97.8817 451.225 97.7625 451.263 97.6422L401.059 18H397.512ZM406.298 18L457.375 97.3601C458.326 97.0017 459.207 96.5024 459.995 95.8879L409.866 18H406.298Z" fill="white"/>
<path fill-rule="evenodd" clip-rule="evenodd" d="M400 195C400 172.909 382.091 155 360 155C337.909 155 320 172.909 320 195H324C324 175.118 340.118 159 360 159C379.882 159 396 175.118 396 195H400Z" fill="#4D3F2F"/>
<path fill-rule="evenodd" clip-rule="evenodd" d="M160 195C160 172.909 142.091 155 120 155C97.9086 155 80 172.909 80 195H84C84 175.118 100.118 159 120 159C139.882 159 156 175.118 156 195H160Z" fill="#4D3F2F"/>
</svg>
