<svg width="480" height="231" viewBox="0 0 480 231" fill="none" xmlns="http://www.w3.org/2000/svg">
<path d="M0 20C0 8.9543 8.95431 0 20 0H440C462.091 0 480 17.9086 480 40V175C480 186.046 471.046 195 460 195H20C8.95432 195 0 186.046 0 175V20Z" fill="#6F5B44"/>
<path d="M468 121C468 118.239 470.239 116 473 116H480V135H473C470.239 135 468 132.761 468 130V121Z" fill="#E5E5E5"/>
<path d="M156 195C156 214.882 139.882 231 120 231C100.118 231 84 214.882 84 195C84 175.118 100.118 159 120 159C139.882 159 156 175.118 156 195Z" fill="#332A20"/>
<circle cx="120" cy="195" r="15" fill="white"/>
<path d="M396 195C396 214.882 379.882 231 360 231C340.118 231 324 214.882 324 195C324 175.118 340.118 159 360 159C379.882 159 396 175.118 396 195Z" fill="#332A1F"/>
<circle cx="360" cy="195" r="15" fill="white"/>
<path fill-rule="evenodd" clip-rule="evenodd" d="M400 195C400 172.909 382.091 155 360 155C337.909 155 320 172.909 320 195H324C324 175.118 340.118 159 360 159C379.882 159 396 175.118 396 195H400Z" fill="#4D3F2F"/>
<path fill-rule="evenodd" clip-rule="evenodd" d="M160 195C160 172.909 142.091 155 120 155C97.9086 155 80 172.909 80 195H84C84 175.118 100.118 159 120 159C139.882 159 156 175.118 156 195H160Z" fill="#4D3F2F"/>
</svg>
