<svg id="圖層_1" data-name="圖層 1" xmlns="http://www.w3.org/2000/svg" viewBox="0 0 21 20.5"><defs><style>.cls-1{fill:#997e5f;}</style></defs><path class="cls-1" d="M16,2a5,5,0,1,0,5,5A5,5,0,0,0,16,2Zm0,8a3,3,0,1,1,3-3A3,3,0,0,1,16,10Zm3,6H17a2.89,2.89,0,0,0-1.87-2.7L9,11H1V22H7V20.56l7,1.94L22,20V19A3,3,0,0,0,19,16ZM5,20H3V13H5Zm9,.41L7,18.5V13H8.61l5.82,2.17A.89.89,0,0,1,15,16a21.86,21.86,0,0,1-2.3-.15l-2.38-.79L9.69,17l2.38.79a5,5,0,0,0,1.58.25H19a1,1,0,0,1,.9.57Z" transform="translate(-1 -2)"/></svg>