<svg id="圖層_1" data-name="圖層 1" xmlns="http://www.w3.org/2000/svg" viewBox="0 0 20 18.35"><defs><style>.cls-1{fill:#997e5f;}</style></defs><path class="cls-1" d="M10.1,15.55l-.1.1-.11-.1C5.14,11.24,2,8.39,2,5.5A3.42,3.42,0,0,1,5.34,2H5.5A3.93,3.93,0,0,1,9.07,4.36h1.86A3.93,3.93,0,0,1,14.5,2,3.42,3.42,0,0,1,18,5.34V5.5C18,8.39,14.86,11.24,10.1,15.55ZM14.5,0A6,6,0,0,0,10,2.08,6,6,0,0,0,5.5,0,5.45,5.45,0,0,0,0,5.38V5.5C0,9.27,3.4,12.36,8.55,17L10,18.35,11.45,17C16.6,12.36,20,9.27,20,5.5A5.45,5.45,0,0,0,14.62,0Z" transform="translate(0 0)"/></svg>