<svg id="圖層_1" data-name="圖層 1" xmlns="http://www.w3.org/2000/svg" viewBox="0 0 20 18.35"><defs><style>.cls-1{fill:#6f5b44;}</style></defs><path class="cls-1" d="M12.1,18.55l-.1.1-.11-.1C7.14,14.24,4,11.39,4,8.5A3.42,3.42,0,0,1,7.5,5a3.93,3.93,0,0,1,3.57,2.36h1.86A3.93,3.93,0,0,1,16.5,5,3.42,3.42,0,0,1,20,8.5C20,11.39,16.86,14.24,12.1,18.55ZM16.5,3A6,6,0,0,0,12,5.08,6,6,0,0,0,7.5,3,5.44,5.44,0,0,0,2,8.5C2,12.27,5.4,15.36,10.55,20L12,21.35,13.45,20C18.6,15.36,22,12.27,22,8.5A5.44,5.44,0,0,0,16.5,3Z" transform="translate(-2 -3)"/></svg>