<svg id="圖層_1" data-name="圖層 1" xmlns="http://www.w3.org/2000/svg" viewBox="0 0 509.74 429"><defs><style>.cls-1,.cls-9{fill:#e5e5e5;}.cls-1{fill-opacity:0.9;}.cls-2{fill:#977d5e;}.cls-3,.cls-5{fill:#fff;}.cls-12,.cls-3{fill-rule:evenodd;}.cls-4{fill:none;stroke:#7f8080;stroke-width:10px;}.cls-6{fill:#666767;}.cls-7{fill:#999;}.cls-8{fill:#6e5b43;}.cls-10{fill:#332a1e;}.cls-11{fill:#e6e6e5;}.cls-12{fill:#4d3f2f;}</style></defs><rect class="cls-1" x="97.74" y="76" width="384" height="192"/><rect class="cls-2" x="69.74" width="440" height="53"/><path class="cls-3" d="M249.48,282.44H219.76l123.54,192H373Zm19.26,0,123.13,192h17.81l-123.12-192Zm44.16,0L436,474.44h9.51l-123.12-192Z" transform="translate(-43.02 -206.44)"/><path class="cls-4" d="M136.76,259.44v280" transform="translate(-43.02 -206.44)"/><path class="cls-4" d="M216.76,259.44v220" transform="translate(-43.02 -206.44)"/><path class="cls-4" d="M140.76,475.44h384" transform="translate(-43.02 -206.44)"/><path class="cls-4" d="M140.76,281.44h384" transform="translate(-43.02 -206.44)"/><path class="cls-4" d="M448.76,259.44v220" transform="translate(-43.02 -206.44)"/><path class="cls-4" d="M528.76,259.44v280" transform="translate(-43.02 -206.44)"/><path class="cls-5" d="M283.86,242.44a2,2,0,0,1-2-2V226.62a2,2,0,0,1,.58-1.43,2,2,0,0,1,1.46-.6h4.19c4.44,0,6.66,1.47,6.66,4.43a4.63,4.63,0,0,1-.63,2.32,3.47,3.47,0,0,1-1.64,1.52s-.05,0-.05.07,0,0,.05,0a4.33,4.33,0,0,1,2.25,1.45,4.22,4.22,0,0,1,.86,2.74,4.67,4.67,0,0,1-1,3,5.21,5.21,0,0,1-2.48,1.76,10.71,10.71,0,0,1-3.54.53Zm2.25-11a.2.2,0,0,0,.23.23h1.55a3.22,3.22,0,0,0,2-.51,1.83,1.83,0,0,0,.66-1.5,1.49,1.49,0,0,0-.66-1.36,3.48,3.48,0,0,0-2-.45h-1.55a.21.21,0,0,0-.23.24Zm0,7.5a.2.2,0,0,0,.23.23h1.9c2.09,0,3.14-.76,3.14-2.29a1.68,1.68,0,0,0-.77-1.55,4.41,4.41,0,0,0-2.37-.49h-1.9a.21.21,0,0,0-.23.23Zm16.15,3.84a3.69,3.69,0,0,1-3.22-1.43,7.05,7.05,0,0,1-1-4.1v-6.42a2,2,0,0,1,2-2h.19a2.08,2.08,0,0,1,2,2v5.88a3.78,3.78,0,0,0,.35,1.92,1.4,1.4,0,0,0,1.22.52,2.3,2.3,0,0,0,1.17-.28,3.43,3.43,0,0,0,1-.94.64.64,0,0,0,.14-.42v-6.68a2,2,0,0,1,.58-1.43,2,2,0,0,1,1.46-.61h.18a2.08,2.08,0,0,1,2,2v9.89a1.7,1.7,0,0,1-.51,1.24,1.66,1.66,0,0,1-1.22.49h-.05a2,2,0,0,1-1.29-.46,2.05,2.05,0,0,1-.68-1.22l0-.14s0-.05-.07-.05a.08.08,0,0,0-.07.05,7.22,7.22,0,0,1-1.92,1.61A4.87,4.87,0,0,1,302.26,242.77Zm15.65,0a8.4,8.4,0,0,1-3.89-1,1.31,1.31,0,0,1-.73-1c0-.1,0-.19,0-.28a1.48,1.48,0,0,1,.33-.94,1.56,1.56,0,0,1,1-.66l.36,0a2,2,0,0,1,.91.21,4.55,4.55,0,0,0,2.09.56c1.07,0,1.61-.36,1.61-1.08a.6.6,0,0,0-.07-.3.73.73,0,0,0-.26-.31,2.68,2.68,0,0,0-.3-.23,1.32,1.32,0,0,0-.45-.23,3.39,3.39,0,0,0-.49-.21,2.72,2.72,0,0,0-.58-.24l-.57-.23a13.65,13.65,0,0,1-1.26-.59,7.84,7.84,0,0,1-1.13-.8,3.39,3.39,0,0,1-.86-1.12,3.5,3.5,0,0,1-.31-1.5,3.88,3.88,0,0,1,1.45-3.14,5.85,5.85,0,0,1,3.85-1.2,7.56,7.56,0,0,1,3.54.89,1.26,1.26,0,0,1,.68,1c0,.1,0,.18,0,.26a1.4,1.4,0,0,1-.33.92,1.59,1.59,0,0,1-1.05.63,1.75,1.75,0,0,1-.4,0,1.81,1.81,0,0,1-.87-.22,3.68,3.68,0,0,0-1.45-.35c-1,0-1.45.33-1.45,1a.75.75,0,0,0,0,.26,1.18,1.18,0,0,0,.14.23l.19.19a1.17,1.17,0,0,0,.26.18l.33.15.37.16.42.16.45.14.47.17a10,10,0,0,1,1.29.58,5.42,5.42,0,0,1,1.12.78,2.82,2.82,0,0,1,.87,1.17,3.86,3.86,0,0,1,.3,1.57,4,4,0,0,1-1.5,3.21A6.27,6.27,0,0,1,317.91,242.77Zm19.53,0a9.8,9.8,0,0,1-5.16-1.43,1.5,1.5,0,0,1-.75-1.19v-.21a1.81,1.81,0,0,1,.44-1.2,1.9,1.9,0,0,1,1.29-.7,1.83,1.83,0,0,1,.33,0,2.37,2.37,0,0,1,1.17.3,5.85,5.85,0,0,0,2.77.77,3.05,3.05,0,0,0,1.73-.4,1.36,1.36,0,0,0,.59-1.17,1.15,1.15,0,0,0-.49-1,9.25,9.25,0,0,0-1.71-.87l-.31-.14-2.3-1a6.64,6.64,0,0,1-2.6-1.86,4.66,4.66,0,0,1-1-3,4.79,4.79,0,0,1,1.82-3.82,6.86,6.86,0,0,1,4.64-1.57,8.21,8.21,0,0,1,4.48,1.29,1.4,1.4,0,0,1,.66,1.1,1.11,1.11,0,0,1,0,.19,1.8,1.8,0,0,1-1.57,1.75,1.65,1.65,0,0,1-.38,0,2.29,2.29,0,0,1-1-.23,5,5,0,0,0-2.21-.5,2.74,2.74,0,0,0-1.57.4,1.29,1.29,0,0,0-.56,1.1,1.14,1.14,0,0,0,.12.52,2.2,2.2,0,0,0,.3.37,2.55,2.55,0,0,0,.54.38l.66.3.84.33a.94.94,0,0,1,.26.1l2.23.89a5,5,0,0,1,3.51,4.89,5.14,5.14,0,0,1-1.85,4A7.24,7.24,0,0,1,337.44,242.77Zm14.81,0a4.51,4.51,0,0,1-3.66-1.4,6.14,6.14,0,0,1-1.17-4v-5.06a.17.17,0,0,0-.19-.19h-.07a1.6,1.6,0,0,1-1.59-1.59,1.67,1.67,0,0,1,1.59-1.71l.28,0a.24.24,0,0,0,.26-.23l.21-1.62a1.88,1.88,0,0,1,.66-1.24,2,2,0,0,1,1.36-.52,1.71,1.71,0,0,1,1.24.52,1.69,1.69,0,0,1,.54,1.27v1.57a.21.21,0,0,0,.23.23h1.32a1.59,1.59,0,0,1,1.17.49,1.63,1.63,0,0,1,.49,1.2,1.67,1.67,0,0,1-1.66,1.66h-1.32a.21.21,0,0,0-.23.24v5c0,1.26.48,2,1.43,2.08a3,3,0,0,1,1.22.42,1.31,1.31,0,0,1,.65.89,2,2,0,0,1,.05.4,1.57,1.57,0,0,1-.26.85,1.37,1.37,0,0,1-1,.68A11.72,11.72,0,0,1,352.25,242.77Zm11,0a6.63,6.63,0,0,1-2.53-.49,6.85,6.85,0,0,1-2.13-1.38,6.43,6.43,0,0,1-1.5-2.25,8.74,8.74,0,0,1,0-6.05,6.25,6.25,0,0,1,1.5-2.27,6.71,6.71,0,0,1,2.13-1.39,6.82,6.82,0,0,1,2.53-.49,6.57,6.57,0,0,1,2.48.49,6.86,6.86,0,0,1,2.14,1.39,6.2,6.2,0,0,1,1.47,2.27,8.31,8.31,0,0,1,0,6.05,6.37,6.37,0,0,1-1.47,2.25,7,7,0,0,1-2.14,1.38A6.38,6.38,0,0,1,363.24,242.77Zm0-3.44a1.84,1.84,0,0,0,1.71-1,6.68,6.68,0,0,0,0-5.49,1.84,1.84,0,0,0-1.71-1,1.93,1.93,0,0,0-1.76,1,6.79,6.79,0,0,0,0,5.49A1.93,1.93,0,0,0,363.24,239.33Zm11.39,8.13a2,2,0,0,1-2-2V230.59a1.79,1.79,0,0,1,.49-1.25,1.72,1.72,0,0,1,1.25-.51h.53a1.33,1.33,0,0,1,.92.35,1.47,1.47,0,0,1,.54.84l0,.1s0,0,.05,0,.08,0,.09,0a5.76,5.76,0,0,1,3.8-1.62,4.6,4.6,0,0,1,3.89,1.9,8,8,0,0,1,1.45,5,9.57,9.57,0,0,1-.49,3.14,6.58,6.58,0,0,1-1.29,2.34,5.63,5.63,0,0,1-1.83,1.41,4.85,4.85,0,0,1-2.13.49,4.35,4.35,0,0,1-3-1.24.12.12,0,0,0-.12,0,.11.11,0,0,0,0,.1l.11,1.9v1.87a2.08,2.08,0,0,1-2,2Zm4.24-8.13a1.93,1.93,0,0,0,1.69-.94,6.69,6.69,0,0,0,.12-5.53A1.83,1.83,0,0,0,379,232a2.86,2.86,0,0,0-2,1,.48.48,0,0,0-.17.39v4.93a.42.42,0,0,0,.19.37A2.89,2.89,0,0,0,378.87,239.33Z" transform="translate(-43.02 -206.44)"/><rect class="cls-6" x="169.74" y="271" width="240" height="20"/><rect class="cls-6" x="213.74" y="291" width="20" height="42"/><rect class="cls-6" x="345.74" y="291" width="20" height="42"/><rect class="cls-7" x="169.74" y="269" width="240" height="8"/><path class="cls-8" d="M43,404.44H289.15a40,40,0,0,1,40,40v135a20,20,0,0,1-20,20H43Z" transform="translate(-43.02 -206.44)"/><path class="cls-9" d="M317.15,525.44a5,5,0,0,1,5-5h7v19h-7a5,5,0,0,1-5-5Z" transform="translate(-43.02 -206.44)"/><path class="cls-10" d="M245.15,599.44a36,36,0,1,1-36-36A36,36,0,0,1,245.15,599.44Z" transform="translate(-43.02 -206.44)"/><circle class="cls-5" cx="166.13" cy="393" r="15"/><path class="cls-11" d="M43,422.44H62.15a10,10,0,0,1,10,10v60a10,10,0,0,1-10,10H43Z" transform="translate(-43.02 -206.44)"/><path class="cls-3" d="M43,474.63l17.73,27.81H62a9.92,9.92,0,0,0,4.12-.88L43,465.33Zm0-17.84,26.74,41.95a10,10,0,0,0,1.66-3L43,451.21Z" transform="translate(-43.02 -206.44)"/><rect class="cls-11" x="43.13" y="216" width="60" height="80" rx="10"/><path class="cls-3" d="M134.75,502.44H136a9.92,9.92,0,0,0,4.12-.88L90.66,424a10,10,0,0,0-3.51,3.79Zm-39.6-80,48.61,76.26a10,10,0,0,0,1.66-3L98.68,422.44H96C95.7,422.44,95.42,422.46,95.15,422.48Z" transform="translate(-43.02 -206.44)"/><rect class="cls-11" x="117.13" y="216" width="60" height="80" rx="10"/><path class="cls-3" d="M208.75,502.44H210a9.92,9.92,0,0,0,4.12-.88L164.66,424a10,10,0,0,0-3.51,3.79Zm-39.6-80,48.61,76.26a10,10,0,0,0,1.66-3l-46.74-73.33H170C169.7,422.44,169.42,422.46,169.15,422.48Z" transform="translate(-43.02 -206.44)"/><path class="cls-9" d="M233.15,432.44a10,10,0,0,1,10-10h40a30,30,0,0,1,30,30v40a10,10,0,0,1-10,10h-60a10,10,0,0,1-10-10Z" transform="translate(-43.02 -206.44)"/><path class="cls-3" d="M284.5,502.44h5.91l-50-79.36a10.08,10.08,0,0,0-4.1,2.87Zm-37.84-80,50.43,80h3.2l.12-.35L250.2,422.44Zm8.78,0,51.08,79.36a9.65,9.65,0,0,0,2.62-1.47L259,422.44Z" transform="translate(-43.02 -206.44)"/><path class="cls-12" d="M249.15,599.44a40,40,0,0,0-80,0h4a36,36,0,0,1,72,0Z" transform="translate(-43.02 -206.44)"/></svg>