<svg width="88" height="88" viewBox="0 0 88 88" fill="none" xmlns="http://www.w3.org/2000/svg">
<rect width="88" height="88" rx="44" fill="#6F5B44"/>
<path d="M43.9999 43.1673C42.8949 43.1673 41.835 42.7283 41.0536 41.9469C40.2722 41.1655 39.8333 40.1057 39.8333 39.0007C39.8333 37.8956 40.2722 36.8358 41.0536 36.0544C41.835 35.273 42.8949 34.834 43.9999 34.834C45.105 34.834 46.1648 35.273 46.9462 36.0544C47.7276 36.8358 48.1666 37.8956 48.1666 39.0007C48.1666 39.5478 48.0588 40.0896 47.8494 40.5952C47.64 41.1007 47.3331 41.56 46.9462 41.9469C46.5593 42.3338 46.1 42.6408 45.5944 42.8502C45.0889 43.0595 44.5471 43.1673 43.9999 43.1673ZM43.9999 27.334C40.9057 27.334 37.9383 28.5631 35.7503 30.7511C33.5624 32.939 32.3333 35.9065 32.3333 39.0007C32.3333 47.7507 43.9999 60.6673 43.9999 60.6673C43.9999 60.6673 55.6666 47.7507 55.6666 39.0007C55.6666 35.9065 54.4374 32.939 52.2495 30.7511C50.0616 28.5631 47.0941 27.334 43.9999 27.334Z" fill="#E4DCCB"/>
</svg>
