<svg id="圖層_1" data-name="圖層 1" xmlns="http://www.w3.org/2000/svg" viewBox="0 0 21 20"><defs><style>.cls-1{fill:#4d3f2f;}</style></defs><path class="cls-1" d="M15,18.54A46,46,0,0,1,22,18v4H5c0-.65,3.2-2.14,8-3.1V12.4A3.53,3.53,0,0,0,11,14,3.49,3.49,0,0,0,9.72,12.7a3.51,3.51,0,0,0-3.44,0A3.49,3.49,0,0,0,5,14C5,10.37,8.5,7.43,13,7V7a1,1,0,1,1,2,0V7c4.5.39,8,3.33,8,6.91a3.49,3.49,0,0,0-1.28-1.25,3.51,3.51,0,0,0-3.44,0A3.49,3.49,0,0,0,17,14a3.58,3.58,0,0,0-2-1.56ZM7,2a5,5,0,0,1-.38,1.91A5.1,5.1,0,0,1,5.54,5.54,5.1,5.1,0,0,1,3.91,6.62,5,5,0,0,1,2,7V2Z" transform="translate(-2 -2)"/></svg>