<svg width="440" height="333" viewBox="0 0 440 333" fill="none" xmlns="http://www.w3.org/2000/svg">
<rect x="28" y="76" width="384" height="192" fill="#E5E5E5" fill-opacity="0.9"/>
<rect width="440" height="53" fill="#997E5F"/>
<path fill-rule="evenodd" clip-rule="evenodd" d="M136.729 76H107L230.548 268H260.276L136.729 76ZM155.989 76L279.11 268H296.929L173.808 76H155.989ZM200.147 76L323.268 268H332.771L209.65 76H200.147Z" fill="white"/>
<path d="M24 53V333" stroke="#808080" stroke-width="10"/>
<path d="M104 53V273" stroke="#808080" stroke-width="10"/>
<path d="M28 269H412" stroke="#808080" stroke-width="10"/>
<path d="M28 75L412 75" stroke="#808080" stroke-width="10"/>
<path d="M336 53V273" stroke="#808080" stroke-width="10"/>
<path d="M416 53V333" stroke="#808080" stroke-width="10"/>
<path d="M171.102 36C170.539 36 170.055 35.8047 169.648 35.4141C169.258 35.0078 169.062 34.5234 169.062 33.9609V20.1797C169.062 19.6172 169.258 19.1406 169.648 18.75C170.055 18.3438 170.539 18.1406 171.102 18.1406H175.297C179.734 18.1406 181.953 19.6172 181.953 22.5703C181.953 23.3828 181.742 24.1562 181.32 24.8906C180.898 25.625 180.352 26.1328 179.68 26.4141C179.648 26.4141 179.633 26.4375 179.633 26.4844C179.633 26.5156 179.648 26.5312 179.68 26.5312C180.617 26.7969 181.367 27.2812 181.93 27.9844C182.508 28.6875 182.797 29.6016 182.797 30.7266C182.797 31.8984 182.477 32.8906 181.836 33.7031C181.211 34.5156 180.383 35.1016 179.352 35.4609C178.32 35.8203 177.141 36 175.812 36H171.102ZM173.352 24.9844C173.352 25.1406 173.43 25.2188 173.586 25.2188H175.133C176.023 25.2188 176.688 25.0469 177.125 24.7031C177.562 24.3438 177.781 23.8438 177.781 23.2031C177.781 22.5781 177.562 22.125 177.125 21.8438C176.703 21.5469 176.039 21.3984 175.133 21.3984H173.586C173.43 21.3984 173.352 21.4766 173.352 21.6328V24.9844ZM173.352 32.4844C173.352 32.6406 173.43 32.7188 173.586 32.7188H175.484C177.578 32.7188 178.625 31.9531 178.625 30.4219C178.625 29.7031 178.367 29.1875 177.852 28.875C177.352 28.5469 176.562 28.3828 175.484 28.3828H173.586C173.43 28.3828 173.352 28.4609 173.352 28.6172V32.4844ZM189.5 36.3281C188.047 36.3281 186.977 35.8516 186.289 34.8984C185.602 33.9297 185.258 32.5625 185.258 30.7969V24.375C185.258 23.8125 185.453 23.3359 185.844 22.9453C186.25 22.5391 186.734 22.3359 187.297 22.3359H187.484C188.047 22.3359 188.523 22.5391 188.914 22.9453C189.32 23.3359 189.523 23.8125 189.523 24.375V30.2578C189.523 31.1797 189.641 31.8203 189.875 32.1797C190.125 32.5234 190.531 32.6953 191.094 32.6953C191.547 32.6953 191.938 32.6016 192.266 32.4141C192.594 32.2266 192.922 31.9141 193.25 31.4766C193.344 31.3672 193.391 31.2266 193.391 31.0547V24.375C193.391 23.8125 193.586 23.3359 193.977 22.9453C194.383 22.5391 194.867 22.3359 195.43 22.3359H195.617C196.18 22.3359 196.656 22.5391 197.047 22.9453C197.453 23.3359 197.656 23.8125 197.656 24.375V34.2656C197.656 34.75 197.484 35.1641 197.141 35.5078C196.812 35.8359 196.406 36 195.922 36H195.875C195.391 36 194.961 35.8438 194.586 35.5312C194.211 35.2031 193.984 34.7969 193.906 34.3125L193.883 34.1719C193.867 34.1406 193.844 34.125 193.812 34.125C193.781 34.125 193.758 34.1406 193.742 34.1719C193.133 34.875 192.492 35.4141 191.82 35.7891C191.148 36.1484 190.375 36.3281 189.5 36.3281ZM205.156 36.3281C203.859 36.3281 202.562 35.9922 201.266 35.3203C200.859 35.1172 200.617 34.7812 200.539 34.3125C200.523 34.2188 200.516 34.125 200.516 34.0312C200.516 33.6875 200.625 33.375 200.844 33.0938C201.094 32.7344 201.445 32.5156 201.898 32.4375C202.023 32.4219 202.141 32.4141 202.25 32.4141C202.578 32.4141 202.883 32.4844 203.164 32.625C203.883 33 204.578 33.1875 205.25 33.1875C206.328 33.1875 206.867 32.8281 206.867 32.1094C206.867 32 206.844 31.8984 206.797 31.8047C206.75 31.6953 206.664 31.5938 206.539 31.5C206.43 31.4062 206.328 31.3281 206.234 31.2656C206.141 31.1875 205.992 31.1094 205.789 31.0312C205.586 30.9375 205.422 30.8672 205.297 30.8203C205.188 30.7578 204.992 30.6797 204.711 30.5859C204.445 30.4766 204.258 30.3984 204.148 30.3516C203.68 30.1641 203.258 29.9688 202.883 29.7656C202.508 29.5469 202.133 29.2812 201.758 28.9688C201.398 28.6562 201.109 28.2812 200.891 27.8438C200.688 27.3906 200.586 26.8906 200.586 26.3438C200.586 25.0469 201.07 24 202.039 23.2031C203.008 22.4062 204.289 22.0078 205.883 22.0078C207.117 22.0078 208.297 22.3047 209.422 22.8984C209.812 23.1016 210.039 23.4219 210.102 23.8594C210.117 23.9531 210.125 24.0391 210.125 24.1172C210.125 24.4609 210.016 24.7656 209.797 25.0312C209.547 25.375 209.195 25.5859 208.742 25.6641C208.617 25.6953 208.484 25.7109 208.344 25.7109C208.047 25.7109 207.758 25.6406 207.477 25.5C206.945 25.2656 206.461 25.1484 206.023 25.1484C205.055 25.1484 204.57 25.4766 204.57 26.1328C204.57 26.2266 204.586 26.3125 204.617 26.3906C204.648 26.4688 204.695 26.5469 204.758 26.625C204.82 26.6875 204.883 26.75 204.945 26.8125C205.008 26.875 205.094 26.9375 205.203 27C205.328 27.0469 205.438 27.0938 205.531 27.1406C205.625 27.1875 205.75 27.2422 205.906 27.3047C206.078 27.3672 206.219 27.4219 206.328 27.4688C206.438 27.5 206.586 27.5469 206.773 27.6094C206.961 27.6719 207.117 27.7266 207.242 27.7734C207.742 27.9609 208.172 28.1562 208.531 28.3594C208.906 28.5469 209.281 28.8047 209.656 29.1328C210.047 29.4453 210.336 29.8359 210.523 30.3047C210.727 30.7578 210.828 31.2812 210.828 31.875C210.828 33.1875 210.328 34.2578 209.328 35.0859C208.344 35.9141 206.953 36.3281 205.156 36.3281ZM224.68 36.3281C222.836 36.3281 221.117 35.8516 219.523 34.8984C219.086 34.6328 218.836 34.2344 218.773 33.7031C218.773 33.625 218.773 33.5547 218.773 33.4922C218.773 33.0391 218.922 32.6406 219.219 32.2969C219.547 31.8906 219.977 31.6562 220.508 31.5938C220.617 31.5781 220.727 31.5703 220.836 31.5703C221.258 31.5703 221.648 31.6719 222.008 31.875C222.977 32.3906 223.898 32.6484 224.773 32.6484C225.539 32.6484 226.117 32.5156 226.508 32.25C226.898 31.9688 227.094 31.5781 227.094 31.0781C227.094 30.6406 226.93 30.3047 226.602 30.0703C226.273 29.8359 225.703 29.5469 224.891 29.2031C224.75 29.1406 224.648 29.0938 224.586 29.0625L222.289 28.1016C221.242 27.6797 220.375 27.0625 219.688 26.25C219.016 25.4219 218.68 24.4062 218.68 23.2031C218.68 21.6875 219.289 20.4141 220.508 19.3828C221.727 18.3359 223.273 17.8125 225.148 17.8125C226.773 17.8125 228.266 18.2422 229.625 19.1016C230.016 19.3516 230.234 19.7188 230.281 20.2031C230.297 20.2656 230.305 20.3281 230.305 20.3906C230.305 20.8125 230.164 21.1875 229.883 21.5156C229.602 21.875 229.219 22.0859 228.734 22.1484C228.609 22.1797 228.484 22.1953 228.359 22.1953C228 22.1953 227.664 22.1172 227.352 21.9609C226.664 21.6328 225.93 21.4688 225.148 21.4688C224.477 21.4688 223.953 21.6016 223.578 21.8672C223.203 22.1328 223.016 22.5 223.016 22.9688C223.016 23.1562 223.055 23.3281 223.133 23.4844C223.227 23.625 223.328 23.75 223.438 23.8594C223.547 23.9688 223.727 24.0938 223.977 24.2344C224.242 24.3594 224.461 24.4609 224.633 24.5391C224.82 24.6016 225.102 24.7109 225.477 24.8672C225.586 24.8984 225.672 24.9297 225.734 24.9609L227.961 25.8516C230.305 26.7891 231.477 28.4219 231.477 30.75C231.477 32.2969 230.859 33.6172 229.625 34.7109C228.406 35.7891 226.758 36.3281 224.68 36.3281ZM239.492 36.3281C237.836 36.3281 236.617 35.8594 235.836 34.9219C235.055 33.9688 234.664 32.6406 234.664 30.9375V25.875C234.664 25.75 234.602 25.6875 234.477 25.6875H234.406C233.969 25.6875 233.594 25.5312 233.281 25.2188C232.969 24.9062 232.812 24.5312 232.812 24.0938C232.812 23.6406 232.961 23.25 233.258 22.9219C233.57 22.5938 233.953 22.4141 234.406 22.3828L234.688 22.3594C234.844 22.3438 234.93 22.2656 234.945 22.125L235.156 20.5078C235.219 20.0078 235.438 19.5938 235.812 19.2656C236.203 18.9219 236.656 18.75 237.172 18.75C237.656 18.75 238.07 18.9219 238.414 19.2656C238.773 19.6094 238.953 20.0312 238.953 20.5312V22.1016C238.953 22.2578 239.031 22.3359 239.188 22.3359H240.5C240.953 22.3359 241.344 22.5 241.672 22.8281C242 23.1562 242.164 23.5547 242.164 24.0234C242.164 24.4766 242 24.8672 241.672 25.1953C241.344 25.5234 240.953 25.6875 240.5 25.6875H239.188C239.031 25.6875 238.953 25.7656 238.953 25.9219V30.8906C238.953 32.1562 239.43 32.8516 240.383 32.9766C240.852 33.0391 241.258 33.1797 241.602 33.3984C241.961 33.6172 242.18 33.9141 242.258 34.2891C242.289 34.4297 242.305 34.5625 242.305 34.6875C242.305 34.9844 242.219 35.2656 242.047 35.5312C241.828 35.9062 241.5 36.1328 241.062 36.2109C240.547 36.2891 240.023 36.3281 239.492 36.3281ZM250.484 36.3281C249.609 36.3281 248.766 36.1641 247.953 35.8359C247.156 35.5078 246.445 35.0469 245.82 34.4531C245.195 33.8594 244.695 33.1094 244.32 32.2031C243.961 31.2812 243.781 30.2734 243.781 29.1797C243.781 28.0859 243.961 27.0781 244.32 26.1562C244.695 25.2344 245.195 24.4766 245.82 23.8828C246.445 23.2891 247.156 22.8281 247.953 22.5C248.766 22.1719 249.609 22.0078 250.484 22.0078C251.344 22.0078 252.172 22.1719 252.969 22.5C253.766 22.8281 254.477 23.2891 255.102 23.8828C255.727 24.4766 256.219 25.2344 256.578 26.1562C256.953 27.0781 257.141 28.0859 257.141 29.1797C257.141 30.2734 256.953 31.2812 256.578 32.2031C256.219 33.1094 255.727 33.8594 255.102 34.4531C254.477 35.0469 253.766 35.5078 252.969 35.8359C252.172 36.1641 251.344 36.3281 250.484 36.3281ZM250.484 32.8828C251.25 32.8828 251.82 32.5625 252.195 31.9219C252.586 31.2656 252.781 30.3516 252.781 29.1797C252.781 28.0078 252.586 27.0938 252.195 26.4375C251.82 25.7812 251.25 25.4531 250.484 25.4531C249.703 25.4531 249.117 25.7812 248.727 26.4375C248.336 27.0938 248.141 28.0078 248.141 29.1797C248.141 30.3516 248.336 31.2656 248.727 31.9219C249.117 32.5625 249.703 32.8828 250.484 32.8828ZM261.875 41.0156C261.312 41.0156 260.828 40.8125 260.422 40.4062C260.031 40.0156 259.836 39.5391 259.836 38.9766V24.1406C259.836 23.6562 260 23.2422 260.328 22.8984C260.672 22.5547 261.086 22.3828 261.57 22.3828H262.109C262.453 22.3828 262.758 22.5 263.023 22.7344C263.305 22.9531 263.484 23.2344 263.562 23.5781L263.586 23.6719C263.586 23.7031 263.602 23.7188 263.633 23.7188C263.68 23.7188 263.711 23.7031 263.727 23.6719C264.961 22.5938 266.227 22.0547 267.523 22.0547C269.164 22.0547 270.461 22.6875 271.414 23.9531C272.383 25.2031 272.867 26.8828 272.867 28.9922C272.867 30.1328 272.703 31.1797 272.375 32.1328C272.062 33.0703 271.633 33.8516 271.086 34.4766C270.555 35.0859 269.945 35.5547 269.258 35.8828C268.57 36.2109 267.859 36.375 267.125 36.375C266.031 36.375 265.031 35.9609 264.125 35.1328C264.094 35.1016 264.055 35.0938 264.008 35.1094C263.977 35.125 263.961 35.1562 263.961 35.2031L264.078 37.1016V38.9766C264.078 39.5391 263.875 40.0156 263.469 40.4062C263.078 40.8125 262.602 41.0156 262.039 41.0156H261.875ZM266.117 32.8828C266.82 32.8828 267.383 32.5703 267.805 31.9453C268.242 31.3203 268.461 30.3594 268.461 29.0625C268.461 27.8594 268.281 26.9766 267.922 26.4141C267.562 25.8359 267.008 25.5469 266.258 25.5469C265.57 25.5469 264.898 25.875 264.242 26.5312C264.133 26.625 264.078 26.7578 264.078 26.9297V31.8516C264.078 32.0234 264.141 32.1484 264.266 32.2266C264.812 32.6641 265.43 32.8828 266.117 32.8828Z" fill="white"/>
<rect x="100" y="271" width="240" height="20" fill="#666666"/>
<rect x="144" y="291" width="20" height="42" fill="#666666"/>
<rect x="276" y="291" width="20" height="42" fill="#666666"/>
<rect x="100" y="269" width="240" height="8" fill="#999999"/>
</svg>
