<svg width="207" height="50" viewBox="0 0 207 50" fill="none" xmlns="http://www.w3.org/2000/svg">
<path d="M24.1016 11.7969C23.8411 11.3542 23.7109 10.9115 23.7109 10.4688C23.7109 10.1562 23.776 9.84375 23.9062 9.53125C24.1927 8.72396 24.7266 8.16406 25.5078 7.85156C25.9245 7.69531 26.3542 7.61719 26.7969 7.61719C27.2135 7.61719 27.6172 7.68229 28.0078 7.8125C28.8411 8.125 29.5052 8.67188 30 9.45312C31.6406 12.0573 33.6979 14.6615 36.1719 17.2656C36.7448 17.9167 37.0312 18.6719 37.0312 19.5312C37.0312 20.4688 36.7057 21.276 36.0547 21.9531C35.9766 22.0312 35.8984 22.1094 35.8203 22.1875C35.1953 22.8385 34.4531 23.1771 33.5938 23.2031C33.5677 23.2031 33.5417 23.2031 33.5156 23.2031C32.6823 23.2031 31.9922 22.8776 31.4453 22.2266C28.6849 18.8672 26.237 15.3906 24.1016 11.7969ZM9.96094 9.6875C10.3776 8.80208 11.0156 8.15104 11.875 7.73438C12.4219 7.47396 12.9688 7.34375 13.5156 7.34375C13.8542 7.34375 14.2057 7.38281 14.5703 7.46094L14.7266 7.53906C15.612 7.77344 16.25 8.29427 16.6406 9.10156C16.8229 9.51823 16.9141 9.9349 16.9141 10.3516C16.9141 10.7422 16.8099 11.1458 16.6016 11.5625C14.6484 15.5729 12.3177 19.1406 9.60938 22.2656C9.01042 22.9688 8.22917 23.3333 7.26562 23.3594C7.21354 23.3594 7.16146 23.3594 7.10938 23.3594C6.19792 23.3594 5.39062 23.0859 4.6875 22.5391C4.58333 22.4609 4.47917 22.3828 4.375 22.3047C3.67188 21.7578 3.32031 21.0156 3.32031 20.0781C3.32031 19.3229 3.59375 18.6589 4.14062 18.0859C6.43229 15.7161 8.3724 12.9167 9.96094 9.6875ZM25.1953 31.9141C24.8828 31.4453 24.7266 30.9505 24.7266 30.4297C24.7266 30.1953 24.7656 29.9479 24.8438 29.6875C25.0521 28.9062 25.5339 28.3464 26.2891 28.0078C26.8099 27.7734 27.3438 27.6562 27.8906 27.6562C28.2031 27.6562 28.5286 27.6953 28.8672 27.7734C29.7526 28.0078 30.4557 28.4896 30.9766 29.2188C33.0599 32.0833 34.8958 34.9349 36.4844 37.7734C36.7448 38.2943 36.875 38.8151 36.875 39.3359C36.875 39.6745 36.8229 40.026 36.7188 40.3906C36.4323 41.276 35.8724 41.9401 35.0391 42.3828L34.6875 42.5781C34.2708 42.7865 33.8411 42.8906 33.3984 42.8906C33.0859 42.8906 32.7604 42.8385 32.4219 42.7344C31.6406 42.4479 31.0677 41.9401 30.7031 41.2109C30.5729 41.0026 30.3906 40.8984 30.1562 40.8984C24.1406 41.3411 16.5495 41.8229 7.38281 42.3438C7.30469 42.3438 7.22656 42.3438 7.14844 42.3438C6.36719 42.3438 5.67708 42.0833 5.07812 41.5625C4.40104 41.0156 4.01042 40.3125 3.90625 39.4531C3.88021 39.3229 3.86719 39.1927 3.86719 39.0625C3.86719 38.3854 4.10156 37.7734 4.57031 37.2266C5.09115 36.6016 5.76823 36.276 6.60156 36.25C7.4349 36.224 8.16406 36.1849 8.78906 36.1328C9.04948 36.1328 9.23177 36.0156 9.33594 35.7812C11.3672 32.0052 13.125 27.9818 14.6094 23.7109C14.9219 22.7995 15.4948 22.1094 16.3281 21.6406C16.875 21.3281 17.4609 21.1719 18.0859 21.1719C18.3724 21.1719 18.6589 21.2109 18.9453 21.2891L19.3359 21.3672C20.1953 21.5755 20.8333 22.0703 21.25 22.8516C21.4583 23.2682 21.5625 23.6849 21.5625 24.1016C21.5625 24.4922 21.4714 24.8828 21.2891 25.2734C19.7005 28.7891 17.9557 32.2005 16.0547 35.5078C16.0286 35.5859 16.0286 35.6641 16.0547 35.7422C16.1068 35.7943 16.1719 35.8203 16.25 35.8203C18.776 35.7161 22.3438 35.5469 26.9531 35.3125C27.0573 35.3125 27.1224 35.2734 27.1484 35.1953C27.2005 35.0911 27.2005 35.013 27.1484 34.9609C26.4974 33.8932 25.8464 32.8776 25.1953 31.9141ZM51.1328 26.0547C51.1328 26.3151 51.263 26.4453 51.5234 26.4453H56.4062C56.6667 26.4453 56.7969 26.3151 56.7969 26.0547V25.3516C56.7969 25.0911 56.6667 24.9609 56.4062 24.9609H51.5234C51.263 24.9609 51.1328 25.0911 51.1328 25.3516V26.0547ZM51.5234 19.1797C51.263 19.1797 51.1328 19.3099 51.1328 19.5703V20.2734C51.1328 20.5339 51.263 20.6641 51.5234 20.6641H56.4062C56.6667 20.6641 56.7969 20.5339 56.7969 20.2734V19.5703C56.7969 19.3099 56.6667 19.1797 56.4062 19.1797H51.5234ZM68.4766 19.5703C68.4766 19.3099 68.3464 19.1797 68.0859 19.1797H63.2422C62.9818 19.1797 62.8516 19.3099 62.8516 19.5703V20.2734C62.8516 20.5339 62.9818 20.6641 63.2422 20.6641H68.0859C68.3464 20.6641 68.4766 20.5339 68.4766 20.2734V19.5703ZM68.0859 26.4453C68.3464 26.4453 68.4766 26.3151 68.4766 26.0547V25.3516C68.4766 25.0911 68.3464 24.9609 68.0859 24.9609H63.2422C62.9818 24.9609 62.8516 25.0911 62.8516 25.3516V26.0547C62.8516 26.3151 62.9818 26.4453 63.2422 26.4453H68.0859ZM75.9375 32.5781C76.6667 32.5781 77.2786 32.8385 77.7734 33.3594C78.2943 33.8542 78.5547 34.4661 78.5547 35.1953C78.5547 35.9245 78.2943 36.5495 77.7734 37.0703C77.2786 37.5651 76.6667 37.8125 75.9375 37.8125H63.2422C62.9818 37.8125 62.8516 37.9427 62.8516 38.2031V39.8438C62.8516 40.7031 62.5521 41.4193 61.9531 41.9922C61.3802 42.5911 60.6641 42.8906 59.8047 42.8906C58.9714 42.8906 58.2552 42.5911 57.6562 41.9922C57.0833 41.4193 56.7969 40.7031 56.7969 39.8438V38.2031C56.7969 37.9427 56.6667 37.8125 56.4062 37.8125H44.2578C43.5286 37.8125 42.9036 37.5651 42.3828 37.0703C41.888 36.5495 41.6406 35.9245 41.6406 35.1953C41.6406 34.4661 41.888 33.8542 42.3828 33.3594C42.9036 32.8385 43.5286 32.5781 44.2578 32.5781H56.4062C56.6667 32.5781 56.7969 32.4479 56.7969 32.1875V31.4453C56.7969 31.1849 56.6667 31.0547 56.4062 31.0547H48.9062C47.9688 31.0547 47.1615 30.7292 46.4844 30.0781C45.8333 29.401 45.5078 28.5938 45.5078 27.6562V17.9688C45.5078 17.0312 45.8333 16.237 46.4844 15.5859C47.1615 14.9089 47.9688 14.5703 48.9062 14.5703H56.4062C56.6667 14.5703 56.7969 14.4401 56.7969 14.1797V13.5938C56.7969 13.3333 56.6667 13.2031 56.4062 13.2031H45.0781C44.349 13.2031 43.724 12.9557 43.2031 12.4609C42.7083 11.9401 42.4609 11.3151 42.4609 10.5859C42.4609 9.85677 42.7083 9.24479 43.2031 8.75C43.724 8.22917 44.349 7.96875 45.0781 7.96875H56.4844C56.6927 7.96875 56.7969 7.86458 56.7969 7.65625C56.7969 6.90104 57.0703 6.25 57.6172 5.70312C58.1641 5.15625 58.8151 4.88281 59.5703 4.88281H60.0781C60.8333 4.88281 61.4844 5.15625 62.0312 5.70312C62.5781 6.25 62.8516 6.90104 62.8516 7.65625C62.8516 7.86458 62.9557 7.96875 63.1641 7.96875H74.8047C75.5339 7.96875 76.1458 8.22917 76.6406 8.75C77.1615 9.24479 77.4219 9.85677 77.4219 10.5859C77.4219 11.3151 77.1615 11.9401 76.6406 12.4609C76.1458 12.9557 75.5339 13.2031 74.8047 13.2031H63.2422C62.9818 13.2031 62.8516 13.3333 62.8516 13.5938V14.1797C62.8516 14.4401 62.9818 14.5703 63.2422 14.5703H70.9766C71.9141 14.5703 72.7083 14.9089 73.3594 15.5859C74.0365 16.237 74.375 17.0312 74.375 17.9688V27.6562C74.375 28.5938 74.0365 29.401 73.3594 30.0781C72.7083 30.7292 71.9141 31.0547 70.9766 31.0547H63.2422C62.9818 31.0547 62.8516 31.1849 62.8516 31.4453V32.1875C62.8516 32.4479 62.9818 32.5781 63.2422 32.5781H75.9375ZM88.75 12.7734C88.4896 12.7734 88.3594 12.9036 88.3594 13.1641V16.6016C88.3594 16.862 88.4896 16.9922 88.75 16.9922H94.0234C94.2839 16.9922 94.4141 16.862 94.4141 16.6016V13.1641C94.4141 12.9036 94.2839 12.7734 94.0234 12.7734H88.75ZM92.4219 24.4531C92.4219 24.5573 92.4479 24.6484 92.5 24.7266C92.5781 24.8047 92.6693 24.8438 92.7734 24.8438H97.0312C97.9688 24.8438 98.763 25.1823 99.4141 25.8594C100.013 26.4844 100.312 27.2266 100.312 28.0859C100.312 29.6484 100.182 32.0443 99.9219 35.2734C99.7656 37.0182 99.5703 38.4245 99.3359 39.4922C99.1276 40.5339 98.8411 41.276 98.4766 41.7188C97.7214 42.6823 96.6406 43.2682 95.2344 43.4766C94.6875 43.5807 93.9714 43.6458 93.0859 43.6719C93.0339 43.6719 92.9948 43.6719 92.9688 43.6719C92.2917 43.6719 91.6797 43.4375 91.1328 42.9688C90.5859 42.474 90.1953 41.849 89.9609 41.0938C89.9089 40.9115 89.8828 40.7292 89.8828 40.5469C89.8828 40.1823 89.987 39.8438 90.1953 39.5312C90.5078 39.0625 90.9505 38.8281 91.5234 38.8281C91.5234 38.8281 91.5365 38.8281 91.5625 38.8281C91.8229 38.8281 92.1484 38.8281 92.5391 38.8281C93.112 38.8281 93.5417 38.6589 93.8281 38.3203C94.3229 37.7214 94.6875 35.0391 94.9219 30.2734C94.9219 30.1693 94.8828 30.0781 94.8047 30C94.7266 29.9219 94.6354 29.8828 94.5312 29.8828H92.1484C91.888 29.8828 91.7318 30.013 91.6797 30.2734C90.7422 35.0651 89.0625 38.8932 86.6406 41.7578C86.1979 42.2526 85.6641 42.5 85.0391 42.5C84.9349 42.5 84.8438 42.487 84.7656 42.4609C84.0365 42.3828 83.3984 42.0443 82.8516 41.4453C82.3307 40.8724 82.0703 40.1953 82.0703 39.4141C82.0703 38.6849 82.3047 38.0339 82.7734 37.4609C84.2578 35.5859 85.2734 33.4505 85.8203 31.0547C86.3932 28.6328 86.7578 25.7812 86.9141 22.5C86.9141 22.3958 86.875 22.3047 86.7969 22.2266C86.7188 22.1484 86.6276 22.1094 86.5234 22.1094C85.5859 22.1094 84.7786 21.7839 84.1016 21.1328C83.4505 20.4557 83.125 19.6484 83.125 18.7109V11.0938C83.125 10.1562 83.4505 9.36198 84.1016 8.71094C84.7786 8.03385 85.5859 7.69531 86.5234 7.69531H96.6016C97.5391 7.69531 98.3333 8.03385 98.9844 8.71094C99.6615 9.36198 100 10.1562 100 11.0938V18.7109C100 19.6484 99.6615 20.4557 98.9844 21.1328C98.3333 21.7839 97.5391 22.1094 96.6016 22.1094H93.0078C92.7474 22.1094 92.6042 22.2396 92.5781 22.5C92.5521 22.9688 92.5 23.6198 92.4219 24.4531ZM103.242 11.5625C103.815 10.9896 104.492 10.7031 105.273 10.7031C106.055 10.7031 106.719 10.9896 107.266 11.5625C107.812 12.1094 108.086 12.7734 108.086 13.5547V30.7812C108.086 31.5625 107.812 32.2266 107.266 32.7734C106.719 33.3203 106.055 33.5938 105.273 33.5938C104.492 33.5938 103.815 33.3203 103.242 32.7734C102.695 32.2266 102.422 31.5625 102.422 30.7812V13.5547C102.422 12.7734 102.695 12.1094 103.242 11.5625ZM111.68 9.53125C111.68 8.72396 111.953 8.04688 112.5 7.5C113.073 6.92708 113.75 6.64062 114.531 6.64062C115.339 6.64062 116.016 6.92708 116.562 7.5C117.135 8.04688 117.422 8.72396 117.422 9.53125V36.9531C117.422 38.5938 117.24 39.8438 116.875 40.7031C116.536 41.5625 115.911 42.2396 115 42.7344C113.828 43.2812 112.083 43.6198 109.766 43.75C109.688 43.776 109.609 43.7891 109.531 43.7891C108.724 43.7891 107.982 43.5156 107.305 42.9688C106.576 42.3958 106.068 41.6536 105.781 40.7422C105.677 40.5078 105.625 40.2604 105.625 40C105.625 39.5833 105.768 39.1797 106.055 38.7891C106.445 38.1901 106.992 37.8906 107.695 37.8906C107.721 37.8906 107.734 37.8906 107.734 37.8906C108.594 37.9167 109.544 37.9297 110.586 37.9297C110.977 37.9297 111.25 37.8516 111.406 37.6953C111.589 37.5391 111.68 37.2786 111.68 36.9141V9.53125ZM143.242 31.5625C142.982 31.5625 142.852 31.6927 142.852 31.9531V36.0938C142.852 36.3542 142.982 36.4974 143.242 36.5234C144.883 36.7578 146.693 36.875 148.672 36.875C149.74 36.901 150.833 36.9141 151.953 36.9141C153.307 36.9141 154.701 36.901 156.133 36.875C156.133 36.875 156.146 36.875 156.172 36.875C156.823 36.875 157.331 37.1484 157.695 37.6953C157.93 38.0599 158.047 38.4245 158.047 38.7891C158.047 39.0234 158.008 39.2708 157.93 39.5312C157.617 40.3646 157.109 41.0417 156.406 41.5625C155.729 42.1094 154.974 42.3828 154.141 42.3828H148.32C144.102 42.3828 140.521 41.888 137.578 40.8984C134.714 39.9349 132.279 38.2422 130.273 35.8203C130.221 35.7422 130.143 35.7161 130.039 35.7422C129.961 35.7422 129.909 35.7812 129.883 35.8594C128.997 37.8125 128.008 39.4661 126.914 40.8203C126.393 41.3932 125.755 41.6797 125 41.6797C124.974 41.6797 124.961 41.6797 124.961 41.6797C124.18 41.6797 123.477 41.4062 122.852 40.8594C122.253 40.3646 121.953 39.7005 121.953 38.8672C121.953 38.2161 122.161 37.6302 122.578 37.1094C124.609 34.6094 126.016 31.1068 126.797 26.6016C126.953 25.7682 127.357 25.0911 128.008 24.5703C128.555 24.1276 129.167 23.9062 129.844 23.9062C129.974 23.9062 130.104 23.9193 130.234 23.9453C131.042 24.0495 131.693 24.4271 132.188 25.0781C132.526 25.5729 132.695 26.0938 132.695 26.6406C132.695 26.849 132.669 27.0573 132.617 27.2656C132.487 27.8646 132.344 28.4766 132.188 29.1016C132.135 29.362 132.174 29.6094 132.305 29.8438C133.372 31.7188 134.779 33.2161 136.523 34.3359C136.576 34.388 136.641 34.388 136.719 34.3359C136.797 34.2839 136.836 34.2188 136.836 34.1406V22.7344C136.836 22.474 136.706 22.3438 136.445 22.3438H124.688C123.932 22.3438 123.294 22.0833 122.773 21.5625C122.253 21.0417 121.992 20.4167 121.992 19.6875C121.992 18.9323 122.253 18.2943 122.773 17.7734C123.294 17.2526 123.932 16.9922 124.688 16.9922H136.445C136.706 16.9922 136.836 16.862 136.836 16.6016V14.375C136.836 14.1146 136.706 13.9844 136.445 13.9844H128.242C127.513 13.9844 126.888 13.724 126.367 13.2031C125.846 12.6823 125.586 12.0573 125.586 11.3281C125.586 10.599 125.846 9.97396 126.367 9.45312C126.888 8.93229 127.513 8.67188 128.242 8.67188H136.445C136.706 8.67188 136.836 8.54167 136.836 8.28125V7.89062C136.836 7.05729 137.122 6.35417 137.695 5.78125C138.294 5.18229 139.01 4.88281 139.844 4.88281C140.677 4.88281 141.38 5.18229 141.953 5.78125C142.552 6.35417 142.852 7.05729 142.852 7.89062V8.28125C142.852 8.54167 142.982 8.67188 143.242 8.67188H152.148C152.878 8.67188 153.503 8.93229 154.023 9.45312C154.544 9.97396 154.805 10.599 154.805 11.3281C154.805 12.0573 154.544 12.6823 154.023 13.2031C153.503 13.724 152.878 13.9844 152.148 13.9844H143.242C142.982 13.9844 142.852 14.1146 142.852 14.375V16.6016C142.852 16.862 142.982 16.9922 143.242 16.9922H155.391C156.12 16.9922 156.745 17.2526 157.266 17.7734C157.786 18.2943 158.047 18.9323 158.047 19.6875C158.047 20.4167 157.786 21.0417 157.266 21.5625C156.745 22.0833 156.12 22.3438 155.391 22.3438H143.242C142.982 22.3438 142.852 22.474 142.852 22.7344V26.0156C142.852 26.276 142.982 26.4062 143.242 26.4062H152.734C153.438 26.4062 154.036 26.6667 154.531 27.1875C155.052 27.6823 155.312 28.2812 155.312 28.9844C155.312 29.6875 155.052 30.2995 154.531 30.8203C154.036 31.3151 153.438 31.5625 152.734 31.5625H143.242Z" fill="#4D3F2F"/>
<path d="M175.281 8.50722C175.975 6.59872 178.086 5.61469 179.994 6.30932C181.903 7.00396 182.887 9.11422 182.192 11.0227L174.645 31.7566C173.951 33.6651 171.841 34.6491 169.932 33.9545C168.024 33.2599 167.04 31.1496 167.734 29.2411L175.281 8.50722Z" stroke="#4D3F2F" stroke-width="2"/>
<path d="M186.838 8.50722C187.533 6.59872 189.643 5.61469 191.552 6.30932C193.46 7.00396 194.444 9.11422 193.75 11.0227L186.203 31.7566C185.508 33.6651 183.398 34.6491 181.49 33.9545C179.581 33.2599 178.597 31.1496 179.292 29.2411L186.838 8.50722Z" stroke="#4D3F2F" stroke-width="2"/>
<path d="M198.396 8.50722C199.091 6.59872 201.201 5.61469 203.109 6.30932C205.018 7.00396 206.002 9.11422 205.307 11.0227L197.761 31.7566C197.066 33.6651 194.956 34.6491 193.047 33.9545C191.139 33.2599 190.155 31.1496 190.849 29.2411L198.396 8.50722Z" stroke="#4D3F2F" stroke-width="2"/>
<path d="M164.223 38.9773C164.917 37.0688 167.028 36.0848 168.936 36.7794C170.845 37.474 171.829 39.5843 171.134 41.4928C170.439 43.4013 168.329 44.3853 166.421 43.6907C164.512 42.9961 163.528 40.8858 164.223 38.9773Z" stroke="#4D3F2F" stroke-width="2"/>
<path d="M175.78 38.9773C176.475 37.0688 178.585 36.0848 180.494 36.7794C182.402 37.474 183.386 39.5843 182.692 41.4928C181.997 43.4013 179.887 44.3853 177.978 43.6907C176.07 42.9961 175.086 40.8858 175.78 38.9773Z" stroke="#4D3F2F" stroke-width="2"/>
<path d="M187.338 38.9773C188.033 37.0688 190.143 36.0848 192.051 36.7794C193.96 37.474 194.944 39.5843 194.249 41.4928C193.555 43.4013 191.444 44.3853 189.536 43.6907C187.627 42.9961 186.643 40.8858 187.338 38.9773Z" stroke="#4D3F2F" stroke-width="2"/>
</svg>
