<svg width="28" height="28" viewBox="0 0 28 28" fill="none" xmlns="http://www.w3.org/2000/svg">
<path d="M12.8333 17.4999H15.1666V19.8333H12.8333V17.4999ZM12.8333 8.16659H15.1666V15.1666H12.8333V8.16659ZM13.9999 2.33325C7.54825 2.33325 2.33325 7.58325 2.33325 13.9999C2.33325 17.0941 3.56242 20.0616 5.75034 22.2495C6.83369 23.3328 8.11981 24.1922 9.53528 24.7785C10.9507 25.3648 12.4678 25.6666 13.9999 25.6666C17.0941 25.6666 20.0616 24.4374 22.2495 22.2495C24.4374 20.0616 25.6666 17.0941 25.6666 13.9999C25.6666 12.4678 25.3648 10.9507 24.7785 9.53528C24.1922 8.11981 23.3328 6.83369 22.2495 5.75034C21.1661 4.66699 19.88 3.80763 18.4646 3.22132C17.0491 2.63502 15.532 2.33325 13.9999 2.33325ZM13.9999 23.3333C11.5246 23.3333 9.1506 22.3499 7.40026 20.5996C5.64992 18.8492 4.66659 16.4753 4.66659 13.9999C4.66659 11.5246 5.64992 9.1506 7.40026 7.40026C9.1506 5.64992 11.5246 4.66659 13.9999 4.66659C16.4753 4.66659 18.8492 5.64992 20.5996 7.40026C22.3499 9.1506 23.3333 11.5246 23.3333 13.9999C23.3333 16.4753 22.3499 18.8492 20.5996 20.5996C18.8492 22.3499 16.4753 23.3333 13.9999 23.3333Z" fill="white"/>
</svg>
